<?xml version="1.0" standalone="no"?>
<!DOCTYPE svg PUBLIC "-//W3C//DTD SVG 20010904//EN"
 "http://www.w3.org/TR/2001/REC-SVG-20010904/DTD/svg10.dtd">
<svg version="1.0" xmlns="http://www.w3.org/2000/svg"
 width="1080.000000pt" height="1080.000000pt" viewBox="0 0 1080.000000 1080.000000"
 preserveAspectRatio="xMidYMid meet">

<g transform="translate(0.000000,1080.000000) scale(0.100000,-0.100000)"
fill="#000000" stroke="none">
<path d="M5130 9680 c-58 -10 -132 -25 -165 -34 -80 -21 -337 -107 -350 -116
-5 -4 -28 -13 -49 -20 -65 -21 -151 -76 -233 -151 -202 -181 -236 -215 -294
-297 -109 -151 -203 -350 -264 -557 -15 -49 -33 -110 -41 -135 -18 -57 -41
-233 -58 -442 -11 -143 -10 -194 5 -418 10 -140 26 -308 35 -372 9 -65 14
-124 11 -131 -3 -8 -23 -17 -45 -20 -93 -15 -117 -85 -117 -332 0 -134 4 -185
19 -240 71 -262 241 -502 413 -582 71 -33 72 -34 111 -111 36 -73 83 -157 165
-300 99 -171 288 -392 384 -449 33 -19 46 -35 62 -77 10 -28 22 -74 26 -101 4
-28 12 -60 16 -73 10 -26 9 -26 -100 -117 -74 -61 -141 -140 -313 -365 -52
-69 -102 -130 -109 -137 -8 -6 -79 -21 -159 -32 -80 -12 -159 -28 -176 -36
-35 -15 -68 -52 -127 -145 -23 -36 -64 -88 -93 -116 -42 -44 -60 -54 -107 -64
-31 -6 -83 -25 -114 -42 -54 -30 -65 -32 -168 -32 -118 -1 -163 -16 -212 -68
-34 -36 -112 -210 -133 -297 -25 -102 -60 -313 -60 -364 0 -112 -10 -142 -70
-215 -104 -128 -202 -347 -240 -538 l-22 -110 20 -155 c12 -84 35 -210 52
-279 23 -95 30 -147 30 -222 0 -88 -3 -107 -36 -190 -95 -247 -113 -311 -114
-409 0 -67 24 -144 70 -222 30 -50 34 -119 18 -292 -8 -82 -13 -178 -10 -213
4 -58 5 -62 29 -62 24 0 24 1 22 83 -2 45 3 144 10 220 17 173 11 217 -42 326
-40 82 -42 90 -42 176 1 98 18 160 104 372 40 100 41 103 41 225 0 99 -4 137
-20 183 -19 54 -41 180 -70 386 -9 65 -9 101 0 149 12 66 72 266 89 297 6 10
26 51 45 91 38 76 114 192 128 192 4 0 21 -30 38 -66 33 -74 124 -171 202
-217 38 -22 59 -27 112 -27 35 0 88 5 118 12 67 15 245 106 366 187 102 68
103 69 178 157 183 213 186 216 365 452 79 105 68 103 167 30 29 -22 85 -57
125 -78 77 -41 330 -143 384 -155 18 -3 36 -11 39 -16 3 -6 0 -65 -6 -131 -9
-88 -19 -136 -37 -177 -36 -80 -56 -253 -37 -324 30 -113 28 -237 -11 -757
-19 -252 -29 -502 -21 -534 3 -14 16 -31 29 -38 20 -11 350 -39 497 -42 50 -1
56 1 68 26 12 25 29 165 53 433 16 187 27 272 74 570 8 50 23 187 35 305 40
431 64 578 98 612 16 16 241 115 307 135 60 19 224 120 320 198 l54 45 17 -58
c31 -113 79 -238 113 -297 44 -76 166 -203 246 -255 33 -22 90 -52 126 -66 57
-24 78 -27 189 -27 141 -1 207 10 342 55 160 53 647 302 844 433 101 67 182
108 199 101 22 -8 128 -92 181 -143 78 -75 80 -126 9 -332 -32 -93 -35 -114
-33 -190 3 -85 3 -85 38 -108 85 -57 120 -111 120 -184 0 -21 -14 -96 -31
-166 -37 -151 -36 -217 6 -378 26 -102 26 -99 55 -625 5 -102 10 -382 10 -623
l0 -437 26 0 26 0 -5 548 c-6 726 -20 920 -83 1204 l-36 160 31 108 c25 87 31
126 31 205 l0 97 -80 82 c-98 101 -99 106 -33 296 39 113 47 147 47 211 1 75
1 77 -39 120 -22 25 -77 76 -122 114 -89 77 -88 73 -99 215 -4 47 -13 97 -20
111 -21 42 -70 77 -118 84 -56 9 -104 38 -110 67 -3 13 -10 84 -15 158 -11
162 -19 186 -68 207 -33 14 -51 14 -139 4 l-102 -13 -64 65 c-76 75 -127 97
-231 97 -39 0 -68 -2 -66 -4 2 -3 44 -11 92 -20 121 -21 154 -42 244 -159 43
-55 79 -94 81 -89 2 6 -4 22 -13 36 -9 14 -14 29 -11 34 3 5 40 15 83 21 43 7
86 14 96 16 12 2 26 -9 41 -33 21 -33 24 -53 30 -186 5 -110 10 -156 22 -173
17 -27 54 -45 136 -68 85 -23 98 -45 98 -164 0 -116 -5 -125 -94 -175 -36 -20
-78 -47 -93 -59 -15 -13 -68 -45 -118 -72 -49 -26 -110 -59 -135 -73 -25 -13
-92 -49 -150 -79 -58 -31 -109 -59 -115 -64 -5 -5 -16 -9 -24 -9 -8 0 -78 -29
-156 -65 -150 -69 -251 -99 -404 -120 -80 -12 -103 -11 -170 2 -148 30 -247
96 -383 256 -85 101 -136 219 -171 402 -39 197 -46 275 -52 585 -4 157 -9 305
-13 330 -3 25 -5 97 -4 160 2 63 -3 157 -9 209 -10 78 -16 99 -39 125 -24 27
-26 37 -21 76 l6 45 47 3 c57 4 185 -47 229 -90 47 -48 67 -136 90 -403 15
-176 27 -265 46 -335 68 -252 113 -426 113 -440 0 -26 -18 9 -36 70 -9 30 -30
84 -46 120 -28 60 -31 63 -40 43 -12 -26 -7 -49 47 -198 43 -120 66 -161 161
-285 87 -115 130 -156 211 -203 175 -101 333 -116 523 -51 23 8 -8 24 -50 24
l-35 1 30 21 c66 48 160 147 203 213 48 74 161 294 183 358 13 37 12 40 -10
58 -15 12 -39 19 -66 19 -37 0 -55 -8 -122 -58 -43 -32 -84 -66 -92 -76 -33
-40 -47 -39 -103 10 -72 65 -159 103 -271 120 -51 8 -100 11 -109 8 -14 -4
-31 15 -74 83 -140 217 -241 364 -381 552 -24 33 -38 60 -33 65 6 6 43 5 93
-1 47 -6 106 -7 133 -3 55 9 111 3 135 -14 22 -16 176 -192 285 -328 87 -107
152 -173 163 -163 2 2 -24 36 -59 75 -70 79 -72 99 -13 101 21 1 49 4 63 9 34
10 15 16 -84 27 l-80 8 -73 85 c-40 47 -105 117 -143 157 -78 81 -100 90 -196
76 -32 -5 -86 -5 -119 0 -133 18 -124 14 -130 55 -11 66 -47 176 -67 204 -23
34 -151 96 -243 118 l-70 17 0 125 c0 119 1 126 27 159 65 86 151 248 230 434
40 95 142 396 158 468 14 61 24 68 65 41 40 -26 81 -4 176 94 47 48 99 105
116 127 41 54 107 187 139 282 24 71 27 91 26 228 -1 247 -52 415 -137 451
-44 18 -82 18 -135 -1 -23 -8 -46 -15 -50 -15 -8 0 -11 32 -30 325 -18 273
-59 579 -97 725 -37 142 -56 200 -116 367 -87 240 -178 393 -322 543 -45 47
-88 94 -96 105 -17 24 -100 87 -301 227 -55 38 -169 74 -342 108 -179 36 -339
39 -506 10z m400 -21 c114 -14 347 -75 404 -105 87 -46 208 -130 286 -199 125
-111 145 -132 191 -196 24 -34 58 -79 75 -99 49 -61 149 -273 199 -425 90
-276 107 -348 149 -635 63 -440 68 -797 16 -1146 -42 -288 -61 -402 -75 -454
-8 -30 -28 -116 -45 -190 -45 -200 -70 -281 -153 -505 -81 -218 -163 -385
-241 -491 -17 -23 -40 -55 -51 -70 -43 -60 -69 -85 -114 -111 -25 -15 -85 -54
-133 -85 -48 -32 -91 -58 -96 -58 -4 0 -31 -16 -61 -35 -29 -19 -92 -49 -139
-66 -48 -18 -105 -38 -127 -46 -74 -28 -270 -4 -428 52 -73 26 -243 124 -372
214 -157 109 -344 303 -426 442 -27 45 -49 85 -49 88 0 4 -20 39 -45 78 -93
150 -253 496 -308 668 -34 105 -119 437 -151 595 -15 69 -33 150 -41 180 -49
188 -88 485 -87 660 1 265 44 582 107 780 90 281 164 436 284 586 122 154 308
307 476 390 85 42 352 137 460 164 143 36 317 43 495 19z m1610 -2429 c35 -40
56 -107 76 -240 42 -292 -29 -514 -242 -752 -82 -92 -122 -115 -163 -95 -23
11 -26 18 -23 57 2 40 15 112 29 163 2 9 11 17 19 17 24 0 87 36 115 67 57 61
119 216 119 298 0 67 -24 146 -56 185 l-26 30 33 56 c39 65 74 93 92 75 17
-17 47 -13 47 7 0 26 -20 42 -52 42 -21 0 -41 -13 -79 -52 -27 -29 -60 -68
-72 -85 -12 -18 -26 -33 -31 -33 -8 0 -2 132 10 213 12 81 146 112 204 47z
m-3481 -376 c9 -46 8 -50 -17 -71 -15 -12 -30 -22 -33 -23 -13 -1 7 117 24
138 13 17 15 13 26 -44z m26 -146 c2 -13 9 -50 15 -83 10 -62 41 -184 105
-430 21 -77 40 -151 43 -165 5 -25 5 -25 -16 -6 -41 36 -142 196 -163 258 -57
170 -91 416 -55 402 9 -3 21 5 31 20 21 32 33 33 40 4z m1104 -2150 c6 -41 16
-132 21 -203 6 -72 13 -160 16 -197 4 -36 4 -77 1 -90 -8 -32 -114 -189 -207
-309 -20 -25 -72 -100 -115 -165 -69 -103 -268 -375 -398 -543 -23 -30 -55
-73 -72 -96 -133 -186 -287 -318 -519 -445 -65 -36 -240 -100 -272 -100 -21 0
-123 58 -169 95 -75 62 -122 132 -136 203 -29 154 21 547 92 708 31 69 88 149
123 170 23 13 51 17 135 16 100 -1 109 0 163 29 32 16 84 35 116 40 54 10 65
16 125 77 36 37 94 110 129 162 l63 95 65 17 c35 10 104 21 152 24 98 8 106 2
71 -54 -26 -43 58 56 97 113 52 76 244 308 330 398 73 77 156 141 170 132 4
-2 12 -37 19 -77z m1483 -44 c5 -33 19 -98 34 -144 44 -145 47 -173 41 -394
-6 -236 1 -215 -97 -283 -138 -95 -250 -155 -339 -184 -104 -32 -281 -63 -293
-51 -4 4 1 22 12 40 31 50 153 123 335 198 116 49 175 84 175 106 0 24 -17 23
-60 -3 -19 -12 -68 -35 -110 -51 -112 -46 -263 -122 -312 -159 -40 -30 -77
-70 -113 -124 -12 -19 -24 -20 -172 -20 -125 1 -178 6 -254 23 -151 34 -367
127 -424 183 -19 19 -19 19 3 19 37 0 101 38 122 73 21 34 46 134 58 232 l7
60 45 -5 c25 -3 108 -5 185 -4 151 1 126 -5 388 90 21 8 68 31 105 52 37 21
91 48 121 61 81 34 155 76 265 149 115 76 246 179 246 194 0 5 6 8 13 6 6 -3
15 -31 19 -64z m91 -836 c14 -104 30 -316 24 -330 -9 -25 -133 -118 -237 -179
-129 -75 -207 -112 -325 -155 -104 -38 -148 -63 -165 -93 -12 -23 -57 -346
-65 -466 -7 -118 -30 -312 -60 -510 -42 -277 -71 -529 -94 -809 -10 -118 -16
-130 -67 -121 -16 3 -126 12 -244 20 -118 9 -218 19 -222 23 -9 9 4 304 27
622 9 113 20 274 25 359 5 84 12 156 15 159 3 4 14 1 23 -6 9 -7 37 -21 61
-32 l44 -20 -7 -88 c-4 -48 -14 -141 -21 -207 -41 -356 -51 -613 -25 -640 19
-18 187 -38 212 -24 19 10 34 75 43 189 4 41 15 145 26 230 21 161 29 232 54
438 l14 123 43 48 c93 103 126 205 108 335 -8 52 -18 83 -40 114 -17 23 -30
47 -30 53 0 11 70 127 158 262 74 113 74 122 13 283 -28 74 -49 139 -46 143 2
5 30 11 61 15 116 13 285 65 382 116 97 51 252 151 273 176 21 25 36 15 42
-28z m-1723 -33 c99 -83 312 -182 470 -220 41 -10 78 -20 82 -24 4 -3 -14 -42
-40 -86 -44 -75 -47 -84 -47 -150 0 -38 4 -120 9 -181 10 -132 0 -176 -48
-205 -55 -34 -57 -31 -55 100 1 65 -1 123 -5 129 -4 6 -26 16 -49 22 -89 24
-287 103 -392 157 -85 45 -199 125 -203 144 -1 9 17 47 42 85 45 70 186 264
191 264 2 0 22 -16 45 -35z m638 -295 c-20 -28 -48 -40 -48 -22 0 13 23 39 40
45 29 10 30 7 8 -23z m116 -34 c-17 -57 -50 -116 -65 -116 -14 0 -17 10 -15
63 1 34 5 67 8 73 4 6 23 8 43 6 31 -4 35 -7 29 -26z m127 2 c6 -25 5 -28 -17
-28 -14 0 -24 6 -24 14 0 8 -3 22 -6 31 -5 13 -2 16 16 13 16 -2 26 -12 31
-30z m-251 -59 c0 -6 -5 -20 -12 -32 -35 -67 17 -147 96 -147 30 0 47 7 69 28
22 20 28 22 24 9 -4 -10 -7 -27 -7 -38 0 -13 -5 -17 -17 -12 -13 5 -15 3 -9
-13 12 -29 9 -45 -36 -213 -32 -115 -32 -136 3 -151 62 -29 76 -40 92 -70 31
-59 9 -213 -38 -268 -14 -17 -25 -34 -25 -39 0 -4 -17 -17 -37 -28 -21 -11
-50 -28 -66 -39 -20 -15 -44 -20 -95 -20 -63 -1 -73 2 -126 37 -85 57 -107 78
-128 127 -16 38 -18 57 -12 135 4 49 10 100 15 111 15 41 70 94 108 104 21 5
47 20 59 33 34 36 92 290 98 427 1 36 3 66 3 68 3 8 41 0 41 -9z m-109 -89
l-10 -25 0 27 c-1 14 2 35 6 45 7 17 8 17 11 -2 1 -12 -2 -32 -7 -45z m189
-1042 c0 -7 -3 -30 -6 -50 -6 -36 -9 -38 -44 -38 -66 0 -100 11 -100 32 0 10
10 23 23 28 20 8 20 9 2 10 -19 1 -19 1 -2 11 10 6 36 9 58 7 21 -2 39 0 39 4
0 5 7 8 15 8 8 0 15 -6 15 -12z m-20 -167 c0 -14 -3 -43 -7 -64 l-6 -38 -41 6
c-23 4 -45 11 -50 15 -5 5 -14 6 -22 3 -10 -4 -13 8 -11 51 l2 57 68 -2 c65
-2 67 -3 67 -28z m-53 -157 c26 -5 29 -10 26 -32 -12 -75 -9 -73 -68 -71 l-55
2 0 34 c0 19 5 33 13 34 10 0 10 2 0 6 -7 2 -13 11 -13 19 0 15 44 19 97 8z
m5 -226 c-2 -29 -7 -56 -11 -59 -3 -3 -30 -4 -58 -1 -58 4 -61 10 -47 81 6 30
8 31 64 31 l57 0 -5 -52z m-16 -132 c0 -1 -1 -19 -3 -41 l-5 -40 -59 3 c-56 4
-76 16 -44 28 11 5 12 11 4 25 -16 30 -2 38 54 32 29 -3 52 -6 53 -7z m-39
-146 c22 0 24 -4 21 -37 -3 -40 -5 -41 -73 -31 -27 4 -30 9 -33 43 -3 38 -3
38 29 31 17 -3 42 -6 56 -6z"/>
<path d="M5450 7841 c0 -12 83 -43 210 -81 52 -15 136 -40 185 -55 288 -85
496 -135 563 -135 12 0 22 6 22 14 0 10 -19 18 -57 25 -134 25 -609 148 -746
192 -151 50 -177 56 -177 40z"/>
<path d="M4875 7694 c-88 -29 -267 -87 -397 -128 -130 -42 -240 -81 -243 -87
-18 -28 25 -20 170 30 33 11 128 41 210 66 326 99 461 148 450 165 -9 14 -11
13 -190 -46z"/>
<path d="M5997 7394 c-1 -1 -49 -8 -107 -14 -132 -15 -211 -47 -251 -103 -40
-55 -36 -130 13 -218 39 -72 95 -118 215 -175 67 -32 79 -34 172 -34 114 0
153 12 244 73 61 41 108 102 154 204 54 118 0 190 -172 228 -69 15 -263 43
-268 39z m188 -60 c128 -23 194 -45 216 -72 43 -55 8 -166 -84 -268 -68 -74
-132 -104 -243 -111 -121 -8 -181 7 -257 61 -123 89 -151 124 -173 217 l-15
63 29 35 c40 50 86 70 199 86 106 15 201 12 328 -11z"/>
<path d="M5993 7174 c-7 -19 2 -28 22 -21 19 8 19 23 0 31 -9 3 -18 -1 -22
-10z"/>
<path d="M4625 7254 c-341 -36 -501 -119 -480 -247 11 -64 31 -95 114 -180 92
-94 126 -107 274 -107 82 0 112 5 171 26 95 34 144 64 195 119 47 51 110 177
118 235 5 39 -11 105 -28 116 -39 24 -268 48 -364 38z m241 -40 c107 -22 117
-32 112 -114 -3 -55 -10 -75 -43 -130 -63 -102 -119 -153 -200 -183 -103 -38
-191 -56 -228 -46 -18 4 -58 13 -90 19 -144 29 -275 216 -226 324 15 33 127
91 204 106 92 17 263 37 331 39 34 0 97 -6 140 -15z"/>
<path d="M4637 7064 c-14 -14 -7 -35 11 -32 9 2 17 10 17 17 0 16 -18 25 -28
15z"/>
<path d="M5234 6903 c3 -27 11 -178 17 -338 11 -291 17 -335 42 -335 14 0 15
-4 -3 410 -10 245 -20 310 -46 310 -13 0 -15 -9 -10 -47z"/>
<path d="M5425 6200 c3 -5 12 -7 20 -3 21 7 19 13 -6 13 -11 0 -18 -4 -14 -10z"/>
<path d="M5392 5525 c-76 -8 -117 -16 -122 -26 -17 -26 6 -29 111 -14 57 8
122 15 145 15 47 0 59 7 43 27 -13 15 -24 15 -177 -2z"/>
<path d="M4140 3945 c-7 -9 -11 -17 -9 -20 3 -2 10 5 17 15 14 24 10 26 -8 5z"/>
<path d="M4135 3705 c-7 -25 -38 -93 -109 -235 -29 -58 -101 -179 -107 -180
-4 0 -10 24 -13 53 -9 67 -25 90 -79 116 -55 27 -106 27 -188 -1 -82 -27 -148
-70 -228 -146 -35 -34 -65 -62 -67 -62 -2 0 -4 33 -4 73 0 79 -14 113 -42 102
-23 -9 -79 -79 -116 -145 -55 -99 -75 -174 -76 -290 -1 -98 1 -108 28 -158 16
-29 51 -73 77 -97 45 -42 52 -45 101 -45 74 1 134 35 264 150 146 128 288 289
361 407 96 154 223 442 210 476 -2 6 -8 -1 -12 -18z"/>
<path d="M5923 4167 c-11 -12 -29 -38 -38 -57 -10 -19 -36 -66 -59 -105 -81
-138 -180 -341 -173 -358 11 -29 31 -9 82 85 28 50 73 132 100 183 28 50 65
114 83 142 41 64 55 108 38 122 -9 8 -18 5 -33 -12z"/>
<path d="M5180 2602 c-32 -15 -35 -21 -38 -64 -4 -57 9 -83 49 -104 50 -25 87
-21 115 12 36 45 33 97 -10 140 -38 38 -65 42 -116 16z"/>
<path d="M8022 2498 c-7 -7 -12 -35 -12 -63 0 -115 -40 -379 -100 -665 -32
-152 -88 -440 -97 -500 -6 -47 -35 -130 -44 -130 -40 0 -91 44 -117 100 -26
57 -20 203 12 335 36 147 56 271 49 307 -7 37 -60 78 -101 78 -20 0 -43 -10
-62 -27 -38 -34 -38 -29 -22 -493 17 -475 29 -555 98 -656 37 -54 66 -79 117
-101 15 -7 27 -17 27 -22 0 -6 -20 -53 -44 -105 -25 -52 -52 -115 -60 -140
-20 -58 -46 -256 -46 -347 l0 -69 30 0 30 0 0 110 c0 115 22 271 46 329 8 18
35 64 60 103 42 62 46 74 41 113 -2 26 -18 65 -36 93 -41 64 -41 117 -1 237
27 78 36 94 71 120 73 54 296 296 355 385 25 37 27 70 5 70 -6 0 -35 -31 -65
-69 -31 -38 -92 -107 -136 -153 -85 -88 -83 -78 19 69 30 43 67 97 83 121 17
23 45 73 65 110 45 88 92 169 120 211 13 18 59 108 104 199 139 283 171 423
105 453 -17 8 -30 8 -47 -1 -66 -36 -220 -214 -347 -401 -40 -59 -72 -110 -72
-113 0 -4 -12 -24 -26 -44 -14 -20 -23 -28 -20 -17 2 11 10 65 16 120 6 55 18
147 26 205 22 145 9 281 -24 248z"/>
<path d="M3150 2270 c-20 -37 -48 -210 -61 -370 -11 -143 -9 -302 7 -510 l5
-75 -64 127 c-35 70 -72 137 -82 148 -44 49 -81 4 -70 -85 8 -57 89 -304 146
-445 63 -152 159 -337 221 -423 32 -44 66 -103 77 -133 11 -29 33 -76 47 -105
27 -51 27 -51 11 -103 -23 -73 -21 -98 9 -127 25 -23 25 -27 19 -96 l-7 -73
31 0 31 0 0 77 c0 65 -3 81 -24 108 -23 30 -24 35 -13 73 7 22 16 44 20 48 13
13 7 44 -19 95 -48 95 -83 214 -108 370 -35 215 -48 367 -42 479 3 52 8 156
12 230 5 131 33 352 53 418 9 28 7 32 -10 32 -25 0 -35 -26 -64 -170 -24 -115
-42 -289 -54 -515 l-6 -119 -22 109 c-62 303 -71 533 -34 830 28 220 28 217
14 222 -6 2 -17 -5 -23 -17z"/>
<path d="M8591 1384 c-27 -31 -56 -68 -63 -83 -17 -34 -50 -89 -186 -316 -63
-104 -130 -217 -149 -250 -19 -33 -41 -67 -49 -76 -7 -8 -19 -31 -26 -50 -12
-36 -172 -328 -269 -493 -33 -55 -59 -103 -59 -108 0 -4 33 -8 74 -8 l75 0 36
62 c20 35 41 71 46 81 5 10 24 44 40 75 17 31 37 64 43 72 7 8 34 51 61 95 27
44 72 116 100 160 171 265 290 483 351 645 15 41 31 80 35 85 17 26 40 119 35
140 -10 40 -40 30 -95 -31z"/>
<path d="M2884 686 c-3 -8 20 -54 51 -103 31 -48 69 -109 85 -135 32 -52 56
-61 69 -26 8 21 9 20 35 -19 36 -54 101 -105 128 -101 32 5 33 24 3 50 -15 13
-51 55 -80 93 -71 95 -91 112 -114 98 -15 -9 -24 -1 -67 64 -58 89 -96 116
-110 79z"/>
<path d="M5365 560 c-49 -5 -164 -13 -255 -20 -91 -6 -183 -15 -205 -20 -54
-12 -405 -55 -530 -65 -38 -3 -135 -1 -215 4 -119 9 -147 8 -159 -3 -11 -12
-10 -16 10 -28 18 -10 80 -13 259 -13 221 0 329 7 580 40 183 24 633 65 725
65 17 0 37 5 45 10 13 9 12 12 -4 25 -22 16 -95 18 -251 5z"/>
<path d="M5185 454 c-143 -8 -270 -16 -282 -19 -23 -5 -31 -29 -13 -40 5 -3
164 0 352 7 407 15 460 15 598 -8 166 -26 169 -27 195 -20 14 4 25 13 25 20 0
15 -8 17 -190 52 -115 21 -366 25 -685 8z"/>
</g>
</svg>
